<svg width="16" height="14" viewBox="0 0 16 14" fill="none" xmlns="http://www.w3.org/2000/svg">
<mask id="path-1-outside-1_65003_161" maskUnits="userSpaceOnUse" x="5.25134" y="4.44543" width="5" height="7" fill="black">
<rect fill="white" x="5.25134" y="4.44543" width="5" height="7"/>
<path d="M9.66377 5.62364C9.6319 5.51176 9.52002 5.43177 9.40752 5.44738C9.35939 5.44738 8.36752 5.55926 7.67936 6.61551C7.43936 6.43926 7.0231 6.24738 6.44748 6.39177C6.35123 6.40802 6.27123 6.48802 6.27123 6.5999C6.09497 7.81615 7.13497 8.98358 7.63123 9.46358C7.6631 9.54358 7.71123 9.62358 7.72748 9.67171C7.74373 10.0236 7.7756 10.2636 7.79123 10.2955C7.80748 10.4073 7.91935 10.4873 8.03123 10.4873H8.07935C8.20748 10.4711 8.3031 10.3436 8.27122 10.2154C8.27122 10.2154 8.23935 10.0236 8.2231 9.71919C8.43123 9.49545 9.1031 8.72732 9.43936 8.05551C9.99998 6.88801 9.66372 5.67183 9.66372 5.62367L9.66377 5.62364ZM6.72009 6.8399C7.08822 6.80802 7.32822 6.95177 7.45635 7.06364C7.4401 7.11177 7.40822 7.17552 7.3926 7.2399C7.3926 7.2399 7.3926 7.22365 7.37635 7.22365C7.29635 7.11177 7.1526 7.09552 7.04009 7.1599C6.92822 7.2399 6.91197 7.38364 6.97634 7.49615C7.04009 7.5924 7.1526 7.78428 7.26447 8.1199V8.13615C7.26447 8.21615 7.28072 8.29615 7.28072 8.37615C6.97635 7.92802 6.70384 7.38365 6.7201 6.83989L6.72009 6.8399ZM8.99193 7.81615C8.80006 8.1999 8.48006 8.63241 8.20819 8.95241C8.27194 8.32867 8.44819 7.56054 8.92819 6.90425C9.00819 6.79237 8.99194 6.64799 8.88006 6.56799C8.76819 6.48799 8.62381 6.50424 8.54381 6.61612C8.11194 7.19237 7.88755 7.84799 7.77568 8.4398C7.69568 8.02354 7.71193 7.5598 7.91943 7.12793C8.31943 6.3598 8.89569 6.08793 9.21569 5.99167C9.29631 6.34354 9.34381 7.11167 8.99194 7.81599L8.99193 7.81615Z"/>
</mask>
<path d="M9.66377 5.62364C9.6319 5.51176 9.52002 5.43177 9.40752 5.44738C9.35939 5.44738 8.36752 5.55926 7.67936 6.61551C7.43936 6.43926 7.0231 6.24738 6.44748 6.39177C6.35123 6.40802 6.27123 6.48802 6.27123 6.5999C6.09497 7.81615 7.13497 8.98358 7.63123 9.46358C7.6631 9.54358 7.71123 9.62358 7.72748 9.67171C7.74373 10.0236 7.7756 10.2636 7.79123 10.2955C7.80748 10.4073 7.91935 10.4873 8.03123 10.4873H8.07935C8.20748 10.4711 8.3031 10.3436 8.27122 10.2154C8.27122 10.2154 8.23935 10.0236 8.2231 9.71919C8.43123 9.49545 9.1031 8.72732 9.43936 8.05551C9.99998 6.88801 9.66372 5.67183 9.66372 5.62367L9.66377 5.62364ZM6.72009 6.8399C7.08822 6.80802 7.32822 6.95177 7.45635 7.06364C7.4401 7.11177 7.40822 7.17552 7.3926 7.2399C7.3926 7.2399 7.3926 7.22365 7.37635 7.22365C7.29635 7.11177 7.1526 7.09552 7.04009 7.1599C6.92822 7.2399 6.91197 7.38364 6.97634 7.49615C7.04009 7.5924 7.1526 7.78428 7.26447 8.1199V8.13615C7.26447 8.21615 7.28072 8.29615 7.28072 8.37615C6.97635 7.92802 6.70384 7.38365 6.7201 6.83989L6.72009 6.8399ZM8.99193 7.81615C8.80006 8.1999 8.48006 8.63241 8.20819 8.95241C8.27194 8.32867 8.44819 7.56054 8.92819 6.90425C9.00819 6.79237 8.99194 6.64799 8.88006 6.56799C8.76819 6.48799 8.62381 6.50424 8.54381 6.61612C8.11194 7.19237 7.88755 7.84799 7.77568 8.4398C7.69568 8.02354 7.71193 7.5598 7.91943 7.12793C8.31943 6.3598 8.89569 6.08793 9.21569 5.99167C9.29631 6.34354 9.34381 7.11167 8.99194 7.81599L8.99193 7.81615Z" fill="#213F7D"/>
<path d="M9.66377 5.62364L9.77618 5.78906L9.89572 5.70784L9.85612 5.56884L9.66377 5.62364ZM9.40752 5.44738V5.64738H9.42133L9.43501 5.64548L9.40752 5.44738ZM7.67936 6.61551L7.56097 6.77671L7.73146 6.90192L7.84693 6.72469L7.67936 6.61551ZM6.44748 6.39177L6.48078 6.58898L6.48852 6.58767L6.49614 6.58576L6.44748 6.39177ZM6.27123 6.5999L6.46916 6.62858L6.47123 6.61431V6.5999H6.27123ZM7.63123 9.46358L7.81702 9.38955L7.80113 9.34967L7.77028 9.31982L7.63123 9.46358ZM7.72748 9.67171L7.92727 9.66248L7.92597 9.63438L7.91697 9.60773L7.72748 9.67171ZM7.79123 10.2955L7.98915 10.2667L7.98464 10.2356L7.97081 10.2074L7.79123 10.2955ZM8.07935 10.4873V10.6873H8.09199L8.10452 10.6857L8.07935 10.4873ZM8.27122 10.2154L8.07393 10.2482L8.07523 10.256L8.07714 10.2637L8.27122 10.2154ZM8.2231 9.71919L8.07666 9.58297L8.01886 9.64511L8.02338 9.72986L8.2231 9.71919ZM9.43936 8.05551L9.61823 8.14504L9.61965 8.14209L9.43936 8.05551ZM9.66372 5.62367L9.55132 5.45825L9.46372 5.51777V5.62367H9.66372ZM6.72009 6.8399L6.54121 6.75045L6.38145 7.06997L6.73735 7.03915L6.72009 6.8399ZM7.45635 7.06364L7.64584 7.12762L7.68862 7.00093L7.58789 6.91298L7.45635 7.06364ZM7.3926 7.2399L7.1926 7.23989L7.58696 7.28707L7.3926 7.2399ZM7.37635 7.22365L7.21366 7.33998L7.27349 7.42365H7.37635V7.22365ZM7.04009 7.1599L6.94077 6.9863L6.93199 6.99133L6.92376 6.99721L7.04009 7.1599ZM6.97634 7.49615L6.80238 7.59569L6.8096 7.60659L6.97634 7.49615ZM7.26447 8.1199H7.46447V8.08744L7.45421 8.05665L7.26447 8.1199ZM7.28072 8.37615L7.11527 8.48852L7.48072 9.02657V8.37615H7.28072ZM6.7201 6.83989L6.92001 6.84587L6.54121 6.75045L6.7201 6.83989ZM8.99193 7.81615L9.17082 7.9056L9.1893 7.86863L9.19162 7.82737L8.99193 7.81615ZM8.20819 8.95241L8.00922 8.93207L7.94377 9.57254L8.36061 9.0819L8.20819 8.95241ZM8.92819 6.90425L9.08963 7.02232L9.09087 7.02058L8.92819 6.90425ZM8.54381 6.61612L8.70389 6.73609L8.70649 6.73245L8.54381 6.61612ZM7.77568 8.4398L7.57927 8.47755L7.9722 8.47695L7.77568 8.4398ZM7.91943 7.12793L7.74195 7.0355L7.73916 7.04131L7.91943 7.12793ZM9.21569 5.99167L9.41063 5.947L9.36287 5.73854L9.15808 5.80015L9.21569 5.99167ZM8.99194 7.81599L8.81303 7.72661L8.79457 7.76354L8.79226 7.80477L8.99194 7.81599ZM9.85612 5.56884C9.79992 5.3716 9.60174 5.21851 9.38002 5.24928L9.43501 5.64548C9.43532 5.64544 9.44155 5.64484 9.45162 5.65185C9.46188 5.65899 9.46881 5.66927 9.47143 5.67844L9.85612 5.56884ZM9.40752 5.24738C9.37168 5.24738 9.28247 5.25876 9.1665 5.28708C9.04474 5.31682 8.88189 5.36799 8.69829 5.45439C8.33016 5.62763 7.8792 5.94239 7.51178 6.50634L7.84693 6.72469C8.16767 6.23239 8.55673 5.96308 8.86861 5.81632C9.02501 5.74271 9.16217 5.6999 9.26142 5.67566C9.36647 5.65 9.41929 5.64738 9.40752 5.64738V5.24738ZM7.79774 6.45431C7.52306 6.25259 7.04656 6.0353 6.39882 6.19778L6.49614 6.58576C6.99964 6.45946 7.35565 6.62592 7.56097 6.77671L7.79774 6.45431ZM6.41419 6.19456C6.23048 6.22557 6.07123 6.38176 6.07123 6.5999H6.47123C6.47123 6.59605 6.47186 6.59437 6.47198 6.59406C6.47214 6.59364 6.47232 6.59332 6.47271 6.59289C6.47372 6.59175 6.47643 6.58971 6.48078 6.58898L6.41419 6.19456ZM6.0733 6.57121C5.97585 7.24367 6.21589 7.88729 6.52719 8.41015C6.83979 8.9352 7.23754 9.36103 7.49218 9.60733L7.77028 9.31982C7.52866 9.08612 7.15828 8.68824 6.87088 8.20552C6.58218 7.7206 6.39035 7.17238 6.46916 6.62858L6.0733 6.57121ZM7.44543 9.53761C7.46504 9.58681 7.48893 9.63432 7.5064 9.66919C7.51577 9.68787 7.52306 9.70244 7.52907 9.71522C7.53196 9.72138 7.53413 9.72622 7.53572 9.73C7.5365 9.73185 7.53707 9.73325 7.53746 9.73427C7.53786 9.7353 7.53801 9.73575 7.53799 9.73568L7.91697 9.60773C7.9033 9.56724 7.87921 9.52031 7.86402 9.49C7.8454 9.45284 7.82929 9.42034 7.81702 9.38955L7.44543 9.53761ZM7.52769 9.68093C7.53598 9.86052 7.54832 10.0128 7.5608 10.1256C7.56702 10.1818 7.57345 10.2297 7.57971 10.2671C7.58281 10.2856 7.58619 10.3034 7.58988 10.3193C7.59232 10.3297 7.59866 10.357 7.61165 10.3835L7.97081 10.2074C7.97989 10.2259 7.98182 10.2387 7.97946 10.2286C7.97836 10.2238 7.97655 10.2149 7.97421 10.201C7.96959 10.1734 7.96411 10.1334 7.95837 10.0816C7.94695 9.97842 7.93522 9.83476 7.92727 9.66248L7.52769 9.68093ZM7.5933 10.3242C7.62655 10.5531 7.84017 10.6873 8.03123 10.6873V10.2873C8.02154 10.2873 8.00822 10.2832 7.99765 10.2751C7.98763 10.2673 7.98862 10.2631 7.98915 10.2667L7.5933 10.3242ZM8.03123 10.6873H8.07935V10.2873H8.03123V10.6873ZM8.10452 10.6857C8.34199 10.6556 8.52835 10.4206 8.46531 10.1672L8.07714 10.2637C8.07741 10.2648 8.07831 10.2691 8.07297 10.2765C8.06711 10.2846 8.05935 10.2883 8.05419 10.2889L8.10452 10.6857ZM8.27122 10.2154C8.46852 10.1827 8.46852 10.1827 8.46853 10.1827C8.46853 10.1827 8.46853 10.1827 8.46853 10.1827C8.46853 10.1827 8.46854 10.1828 8.46854 10.1828C8.46854 10.1828 8.46854 10.1828 8.46854 10.1828C8.46854 10.1828 8.46853 10.1827 8.46852 10.1827C8.46849 10.1825 8.46843 10.1821 8.46834 10.1815C8.46816 10.1804 8.46787 10.1786 8.46747 10.176C8.46669 10.171 8.4655 10.1631 8.46399 10.1525C8.46098 10.1313 8.45671 10.0996 8.45192 10.0584C8.44234 9.97594 8.43069 9.85606 8.42282 9.70853L8.02338 9.72986C8.03176 9.88672 8.04418 10.015 8.05459 10.1046C8.05981 10.1494 8.06452 10.1846 8.06799 10.2089C8.06973 10.2211 8.07115 10.2306 8.07217 10.2372C8.07268 10.2405 8.07309 10.2431 8.07339 10.2449C8.07354 10.2458 8.07366 10.2466 8.07375 10.2471C8.07379 10.2474 8.07383 10.2476 8.07386 10.2478C8.07388 10.2479 8.07389 10.248 8.0739 10.2481C8.07391 10.2481 8.07391 10.2481 8.07392 10.2482C8.07392 10.2482 8.07392 10.2482 8.07392 10.2482C8.07393 10.2482 8.07393 10.2482 8.27122 10.2154ZM8.36954 9.85541C8.57899 9.63025 9.26817 8.84436 9.6182 8.14503L9.26051 7.966C8.93803 8.61028 8.28347 9.36065 8.07666 9.58297L8.36954 9.85541ZM9.61965 8.14209C9.91824 7.52027 9.97628 6.88971 9.96168 6.41371C9.95436 6.17498 9.9287 5.973 9.90488 5.82747C9.89295 5.75463 9.88149 5.696 9.87313 5.65455C9.86873 5.63275 9.86584 5.61886 9.86361 5.60753C9.86254 5.60208 9.86211 5.59964 9.862 5.59899C9.86108 5.59343 9.86372 5.60637 9.86372 5.62367H9.46372C9.46372 5.64399 9.46702 5.66221 9.46734 5.66416C9.46847 5.671 9.46986 5.67826 9.47112 5.68465C9.47354 5.697 9.47733 5.71532 9.48103 5.73366C9.48886 5.7725 9.49929 5.8259 9.51013 5.8921C9.53183 6.02464 9.5552 6.20869 9.56187 6.42597C9.57524 6.86197 9.5211 7.42326 9.25906 7.96894L9.61965 8.14209ZM9.77613 5.7891L9.77618 5.78906L9.55137 5.45822L9.55132 5.45825L9.77613 5.7891ZM6.73735 7.03915C7.03921 7.01301 7.22744 7.12928 7.32481 7.2143L7.58789 6.91298C7.429 6.77426 7.13724 6.60303 6.70284 6.64064L6.73735 7.03915ZM7.26686 6.99966C7.26101 7.01699 7.25353 7.03377 7.23844 7.07165C7.22569 7.10365 7.2095 7.14634 7.19824 7.19272L7.58696 7.28707C7.59132 7.26907 7.59888 7.2477 7.61003 7.2197C7.61885 7.19757 7.63544 7.15842 7.64584 7.12762L7.26686 6.99966ZM7.3926 7.2399C7.5926 7.2399 7.5926 7.2398 7.5926 7.2397C7.5926 7.23967 7.5926 7.23957 7.5926 7.23951C7.5926 7.23937 7.5926 7.23924 7.5926 7.23911C7.5926 7.23884 7.59259 7.23857 7.59259 7.2383C7.59259 7.23775 7.59258 7.2372 7.59257 7.23663C7.59255 7.23549 7.59252 7.2343 7.59248 7.23305C7.5924 7.23058 7.59227 7.22787 7.59206 7.22495C7.59165 7.21919 7.59092 7.21226 7.58962 7.20448C7.58719 7.18986 7.58194 7.1673 7.56945 7.14233C7.55657 7.11657 7.53411 7.08473 7.49668 7.05978C7.458 7.03399 7.41541 7.02365 7.37635 7.02365V7.42365C7.34541 7.42365 7.30892 7.41534 7.2748 7.3926C7.24194 7.37069 7.22253 7.34291 7.21168 7.32121C7.20122 7.3003 7.19699 7.28181 7.19506 7.27024C7.19402 7.26397 7.19342 7.25832 7.19307 7.25345C7.1929 7.25097 7.19278 7.24861 7.1927 7.24637C7.19267 7.24525 7.19264 7.24415 7.19262 7.24307C7.19261 7.24253 7.19261 7.242 7.1926 7.24147C7.1926 7.2412 7.1926 7.24094 7.1926 7.24068C7.1926 7.24055 7.1926 7.24042 7.1926 7.24029C7.1926 7.24022 7.1926 7.24012 7.1926 7.24009C7.1926 7.23999 7.1926 7.23989 7.3926 7.2399ZM7.53903 7.10731C7.38917 6.89773 7.12634 6.88012 6.94077 6.9863L7.13942 7.33349C7.15808 7.32281 7.1757 7.32099 7.18753 7.32296C7.19733 7.32459 7.2057 7.32884 7.21366 7.33998L7.53903 7.10731ZM6.92376 6.99721C6.71418 7.14708 6.69657 7.4099 6.80275 7.59548L7.14994 7.39683C7.13925 7.37816 7.13743 7.36054 7.1394 7.34871C7.14103 7.33892 7.14529 7.33054 7.15643 7.32258L6.92376 6.99721ZM6.8096 7.60659C6.86413 7.68892 6.96869 7.86501 7.07473 8.18314L7.45421 8.05665C7.33651 7.70355 7.21606 7.49589 7.14308 7.38571L6.8096 7.60659ZM7.06447 8.1199V8.13615H7.46447V8.1199H7.06447ZM7.06447 8.13615C7.06447 8.18798 7.06973 8.23809 7.07362 8.27635C7.07786 8.31809 7.08072 8.34798 7.08072 8.37615H7.48072C7.48072 8.32431 7.47546 8.27421 7.47157 8.23594C7.46733 8.19421 7.46447 8.16431 7.46447 8.13615H7.06447ZM7.44617 8.26378C7.14782 7.82451 6.9057 7.32437 6.92001 6.84587L6.52018 6.83391C6.50198 7.44293 6.80488 8.03153 7.11527 8.48852L7.44617 8.26378ZM6.54121 6.75045L6.54121 6.75045L6.89898 6.92934L6.89898 6.92933L6.54121 6.75045ZM8.81305 7.72671C8.63144 8.08993 8.32293 8.50846 8.05577 8.82292L8.36061 9.0819C8.63719 8.75635 8.96868 8.30987 9.17082 7.9056L8.81305 7.72671ZM8.40715 8.97274C8.46911 8.36651 8.6391 7.63829 9.08962 7.02232L8.76676 6.78618C8.25727 7.48278 8.07476 8.29082 8.00922 8.93207L8.40715 8.97274ZM9.09087 7.02058C9.22811 6.82866 9.20762 6.55635 8.9964 6.40531L8.76373 6.73068C8.77015 6.73527 8.77322 6.73928 8.77478 6.74186C8.77638 6.74451 8.7774 6.74736 8.77785 6.75072C8.7787 6.75705 8.77793 6.77053 8.7655 6.78791L9.09087 7.02058ZM8.9964 6.40531C8.80448 6.26807 8.53217 6.28856 8.38112 6.49978L8.70649 6.73245C8.71108 6.72603 8.7151 6.72296 8.71767 6.7214C8.72032 6.7198 8.72317 6.71878 8.72653 6.71833C8.73287 6.71748 8.74635 6.71825 8.76373 6.73068L8.9964 6.40531ZM8.38376 6.49617C7.92837 7.10382 7.69484 7.7907 7.57916 8.40265L7.9722 8.47695C8.08026 7.90528 8.2955 7.28093 8.70385 6.73606L8.38376 6.49617ZM7.97208 8.40205C7.89798 8.01647 7.91525 7.59844 8.0997 7.21454L7.73916 7.04131C7.50861 7.52115 7.49338 8.03061 7.57927 8.47755L7.97208 8.40205ZM8.09682 7.2203C8.46601 6.51134 8.99132 6.26801 9.2733 6.18319L9.15808 5.80015C8.80005 5.90784 8.17285 6.20826 7.74204 7.03555L8.09682 7.2203ZM9.02074 6.03634C9.09447 6.35815 9.13816 7.0758 8.81303 7.72661L9.17086 7.90537C9.54946 7.14754 9.49815 6.32894 9.41063 5.947L9.02074 6.03634ZM8.79226 7.80477L8.79225 7.80493L9.19162 7.82737L9.19163 7.82721L8.79226 7.80477Z" fill="#213F7D" mask="url(#path-1-outside-1_65003_161)"/>
<path d="M4.46006 10.84C4.46006 11.0233 4.61671 11.18 4.80006 11.18C4.98341 11.18 5.14006 11.0233 5.14006 10.84V4.75996C5.14006 4.57661 4.98341 4.41996 4.80006 4.41996C4.61671 4.41996 4.46006 4.57661 4.46006 4.75996V10.84Z" fill="#213F7D" stroke="#213F7D" stroke-width="0.2"/>
<path d="M2.86008 10.84C2.86008 11.0233 3.01673 11.18 3.20008 11.18C3.38344 11.18 3.54008 11.0233 3.54008 10.84V4.75996C3.54008 4.57661 3.38344 4.41996 3.20008 4.41996C3.01673 4.41996 2.86008 4.57661 2.86008 4.75996V10.84Z" fill="#213F7D" stroke="#213F7D" stroke-width="0.2"/>
<path d="M10.8601 10.84C10.8601 11.0233 11.0167 11.18 11.2001 11.18C11.3834 11.18 11.5401 11.0233 11.5401 10.84V4.75996C11.5401 4.57661 11.3834 4.41996 11.2001 4.41996C11.0167 4.41996 10.8601 4.57661 10.8601 4.75996V10.84Z" fill="#213F7D" stroke="#213F7D" stroke-width="0.2"/>
<path d="M12.4601 10.84C12.4601 11.0233 12.6167 11.18 12.8001 11.18C12.9834 11.18 13.1401 11.0233 13.1401 10.84V4.75996C13.1401 4.57661 12.9834 4.41996 12.8001 4.41996C12.6167 4.41996 12.4601 4.57661 12.4601 4.75996V10.84Z" fill="#213F7D" stroke="#213F7D" stroke-width="0.2"/>
<path d="M13.5818 4.29997H13.36H2.64004C2.48648 4.29997 2.34567 4.19237 2.31862 4.04569C2.27553 3.88563 2.35048 3.75011 2.4727 3.66863L2.47684 3.66587L2.47691 3.66598L7.83662 0.46615C7.83666 0.466125 7.83671 0.466099 7.83675 0.466073L7.83691 0.465979L7.88817 0.551841C7.96817 0.503716 8.06442 0.503716 8.12817 0.551841L13.5818 4.29997ZM13.5818 4.29997L13.5366 4.24878C13.6335 4.18881 13.7013 4.08325 13.7149 3.97131L13.7156 3.9714V3.95926C13.7156 3.82907 13.6337 3.69696 13.517 3.64602L8.18352 0.468415L13.5818 4.29997ZM12.119 3.61997H3.86586L7.99994 1.14837L12.119 3.61997Z" fill="#213F7D" stroke="#213F7D" stroke-width="0.2"/>
<path d="M2.64002 11.98H13.36C13.5434 11.98 13.7 11.8233 13.7 11.64C13.7 11.4566 13.5434 11.3 13.36 11.3H2.64002C2.45667 11.3 2.30002 11.4566 2.30002 11.64C2.30002 11.8233 2.45667 11.98 2.64002 11.98Z" fill="#213F7D" stroke="#213F7D" stroke-width="0.2"/>
<path d="M1.8401 12.78H14.1601C14.3435 12.78 14.5001 12.6233 14.5001 12.44C14.5001 12.2566 14.3435 12.1 14.1601 12.1H1.8401C1.65674 12.1 1.5001 12.2566 1.5001 12.44C1.5001 12.6233 1.65674 12.78 1.8401 12.78Z" fill="#213F7D" stroke="#213F7D" stroke-width="0.2"/>
<path d="M1.04005 13.5799H14.96C15.1434 13.5799 15.3 13.4233 15.3 13.2399C15.3 13.0566 15.1434 12.8999 14.96 12.8999H1.04005C0.856696 12.8999 0.700049 13.0566 0.700049 13.2399C0.700049 13.4233 0.856696 13.5799 1.04005 13.5799Z" fill="#213F7D" stroke="#213F7D" stroke-width="0.2"/>
</svg>
